<?xml version="1.0" encoding="utf-8"?>
<!-- Generator: Adobe Illustrator 22.1.0, SVG Export Plug-In . SVG Version: 6.00 Build 0)  -->
<svg version="1.1" id="Layer_1" xmlns="http://www.w3.org/2000/svg" xmlns:xlink="http://www.w3.org/1999/xlink" x="0px" y="0px"
	 viewBox="0 0 120 50" style="enable-background:new 0 0 120 50;" xml:space="preserve">
<style type="text/css">
	.st0{fill:#FFFFFF;}
	.st1{fill:#DABC95;}
	.st2{fill:#CCCCCC;}
</style>
<path class="st0" d="M109.5,31.1L89.9,13.5L90,30h-5.6V0.9h0.2l19.5,17.9L104.1,2h5.5v29.1H109.5z M71.7,28.4
	c-2.2,1.3-4.6,1.9-7.1,1.9c-2.6,0-5-0.6-7.1-1.9c-2.2-1.3-3.9-3-5.2-5.2c-1.3-2.2-1.9-4.6-1.9-7.1c0-2.5,0.6-4.9,1.9-7.1
	c1.3-2.2,3-4,5.2-5.3c2.2-1.3,4.6-2,7.1-2c2.6,0,4.9,0.7,7.1,2C73.9,5,75.7,6.7,77,8.9c1.3,2.2,2,4.6,2,7.1c0,2.6-0.7,5-2,7.1
	C75.7,25.4,73.9,27.1,71.7,28.4z M72.1,11.5C71.3,10.1,70.3,9,69,8.2C67.7,7.4,66.2,7,64.6,7c-1.6,0-3,0.4-4.4,1.2
	C59,9,58,10.1,57.2,11.5c-0.8,1.4-1.1,2.9-1.1,4.6c0,1.6,0.4,3.1,1.2,4.5c0.8,1.4,1.8,2.5,3.2,3.2c1.3,0.8,2.8,1.2,4.4,1.2
	c1.6,0,3-0.4,4.3-1.2c1.3-0.8,2.3-1.9,3-3.2c0.7-1.4,1.1-2.9,1.1-4.5C73.2,14.4,72.9,12.9,72.1,11.5z M26.8,2h19.1v5.3H32.3v6h12
	v5.3h-12v6h14.1V30H26.8V2z M15.8,30l-5.9-8.9H6.2V30H0.7V2h8.5c3.5,0,6.2,0.8,8.1,2.5c1.9,1.7,2.9,4,2.9,6.9c0,1.7-0.4,3.3-1.1,4.8
	c-0.7,1.5-1.8,2.7-3.3,3.6L22.2,30H15.8z M13.5,8.7c-0.6-0.9-1.7-1.4-3.4-1.4h-4v8.4h3.9c1.5,0,2.6-0.4,3.3-1.3c0.7-0.9,1-1.8,1-2.8
	C14.4,10.6,14.1,9.7,13.5,8.7z"/>
<path class="st1" d="M64,11c2.8,0,5,2.2,5,5s-2.2,5-5,5c-2.8,0-5-2.2-5-5S61.2,11,64,11z"/>
<path class="st2" d="M106.7,42.7V49H106v-6.4h-2.5V42h5.7v0.6H106.7z M92.7,43.3V49h-0.7v-7h0.6l4.5,5.7V42h0.7v7h-0.6L92.7,43.3z
	 M84.5,47.2h-3.9L79.8,49H79l3.2-7H83l3.2,7h-0.8L84.5,47.2z M82.6,42.8l-1.7,3.8h3.4L82.6,42.8z M73.1,49l-1.6-2.2
	c-0.2,0-0.4,0-0.6,0h-1.9V49h-0.7v-7h2.6c0.9,0,1.6,0.2,2.1,0.6c0.5,0.4,0.8,1,0.8,1.8c0,0.5-0.1,1-0.4,1.4
	c-0.3,0.4-0.7,0.6-1.2,0.8l1.7,2.4H73.1z M72.5,45.7c0.4-0.3,0.5-0.7,0.5-1.3c0-0.6-0.2-1-0.5-1.3c-0.4-0.3-0.9-0.5-1.6-0.5h-1.9
	v3.5h1.9C71.6,46.2,72.1,46,72.5,45.7z M58.6,49.1c-0.9,0-1.6-0.3-2.1-0.8C56,47.8,55.7,47,55.7,46v-4h0.7v4c0,0.8,0.2,1.4,0.5,1.8
	c0.4,0.4,0.9,0.6,1.6,0.6c0.7,0,1.2-0.2,1.6-0.6c0.4-0.4,0.5-1,0.5-1.8v-4h0.7v4c0,1-0.3,1.8-0.8,2.3C60.2,48.8,59.5,49.1,58.6,49.1
	z M48.6,47.2h-3.9L43.8,49h-0.8l3.2-7H47l3.2,7h-0.8L48.6,47.2z M46.6,42.8l-1.7,3.8h3.4L46.6,42.8z M36.3,49h-0.7v-6.4h-2.5V42h5.7
	v0.6h-2.5V49z M24.7,44.9c0.3,0.1,0.6,0.2,1,0.3c0.5,0.1,0.9,0.3,1.2,0.4c0.3,0.1,0.6,0.3,0.8,0.6s0.3,0.6,0.3,1
	c0,0.4-0.1,0.7-0.3,1c-0.2,0.3-0.5,0.5-0.9,0.7c-0.4,0.2-0.9,0.3-1.5,0.3c-0.5,0-1-0.1-1.5-0.2c-0.5-0.2-0.8-0.4-1.1-0.7l0.3-0.6
	c0.3,0.3,0.6,0.5,1,0.6c0.4,0.2,0.9,0.2,1.3,0.2c0.6,0,1.1-0.1,1.4-0.3c0.3-0.2,0.5-0.5,0.5-0.9c0-0.3-0.1-0.5-0.3-0.7
	c-0.2-0.2-0.4-0.3-0.6-0.4c-0.2-0.1-0.6-0.2-1-0.3c-0.5-0.1-0.9-0.3-1.3-0.4c-0.3-0.1-0.6-0.3-0.8-0.6c-0.2-0.3-0.3-0.6-0.3-1
	c0-0.4,0.1-0.7,0.3-1c0.2-0.3,0.5-0.5,0.9-0.7c0.4-0.2,0.9-0.3,1.4-0.3c0.4,0,0.8,0.1,1.2,0.2c0.4,0.1,0.7,0.3,1,0.5l-0.2,0.6
	c-0.3-0.2-0.6-0.3-0.9-0.4c-0.3-0.1-0.7-0.1-1-0.1c-0.6,0-1.1,0.1-1.4,0.4c-0.3,0.2-0.5,0.5-0.5,0.9c0,0.3,0.1,0.5,0.3,0.7
	C24.2,44.7,24.4,44.8,24.7,44.9z M12.2,42H17v0.6H13v2.5h3.6v0.6H13v2.6h4.2V49h-4.9V42z M5.2,49l-1.6-2.2c-0.2,0-0.4,0-0.6,0H1.2
	V49H0.4v-7H3c0.9,0,1.6,0.2,2.1,0.6c0.5,0.4,0.8,1,0.8,1.8c0,0.5-0.1,1-0.4,1.4c-0.3,0.4-0.7,0.6-1.2,0.8L6,49H5.2z M4.6,45.7
	C5,45.4,5.2,45,5.2,44.4c0-0.6-0.2-1-0.6-1.3c-0.4-0.3-0.9-0.5-1.6-0.5H1.2v3.5H3C3.7,46.2,4.2,46,4.6,45.7z"/>
</svg>
